nColumns=19
nRows=66
DataType=double
version=3
OpenSimVersion=4.1
endheader
time	ground_force_calcn_l_vx	ground_force_calcn_l_vy	ground_force_calcn_l_vz	ground_force_calcn_l_px	ground_force_calcn_l_py	ground_force_calcn_l_pz	ground_force_calcn_l_mx	ground_force_calcn_l_my	ground_force_calcn_l_mz	ground_force_calcn_r_vx	ground_force_calcn_r_vy	ground_force_calcn_r_vz	ground_force_calcn_r_px	ground_force_calcn_r_py	ground_force_calcn_r_pz	ground_force_calcn_r_mx	ground_force_calcn_r_my	ground_force_calcn_r_mz
2.6775	-5.22468	377.856	-29.7545	-0.115316	-1.26987e-17	0.13599	0.062084	-4.49	0.353567	-4.40809	333.832	28.0956	-0.099859	-1.10499e-17	-0.158493	-0.0173191	1.31161	0.110386
2.6875	-5.31032	377.941	-29.7886	-0.115039	-1.26667e-17	0.135932	0.0638197	-4.54212	0.358002	-4.49886	333.677	28.1499	-0.0996782	-1.10278e-17	-0.158484	-0.0185677	1.37715	0.11618
2.69749	-5.3927	378.018	-29.8219	-0.114806	-1.26394e-17	0.1359	0.0656328	-4.60073	0.362952	-4.59093	333.534	28.1914	-0.0994733	-1.10034e-17	-0.158467	-0.0197203	1.43269	0.121096
2.70748	-5.48058	378.091	-29.862	-0.114605	-1.26157e-17	0.135885	0.0675147	-4.65767	0.367868	-4.67811	333.418	28.2048	-0.099266	-1.09792e-17	-0.158438	-0.0206861	1.47434	0.124719
2.71747	-5.5739	378.172	-29.9091	-0.114417	-1.25936e-17	0.135882	0.0693368	-4.70429	0.372056	-4.75711	333.329	28.193	-0.0990777	-1.09576e-17	-0.158393	-0.0214191	1.50083	0.12694
2.72746	-5.67201	378.26	-29.9585	-0.114233	-1.25723e-17	0.135886	0.0710511	-4.73832	0.375279	-4.81501	333.267	28.1553	-0.0988993	-1.09376e-17	-0.158327	-0.0217717	1.50691	0.127308
2.73745	-5.76214	378.367	-29.9924	-0.114034	-1.25496e-17	0.135908	0.0725167	-4.76176	0.377455	-4.83858	333.232	28.1076	-0.0987056	-1.09167e-17	-0.158231	-0.0216245	1.48927	0.125618
2.74744	-5.83413	378.5	-30.0031	-0.11381	-1.25245e-17	0.135946	0.0735538	-4.77193	0.378263	-4.82855	333.217	28.0605	-0.0984959	-1.08948e-17	-0.158103	-0.0208776	1.44076	0.121327
2.75743	-5.88604	378.669	-29.9978	-0.113582	-1.24994e-17	0.135986	0.0741182	-4.76828	0.377738	-4.79022	333.217	28.0273	-0.09827	-1.08717e-17	-0.157956	-0.0197169	1.37154	0.115362
2.76742	-5.91387	378.866	-29.9733	-0.113363	-1.24756e-17	0.136031	0.0741602	-4.751	0.375867	-4.73278	333.23	28.0096	-0.0980342	-1.08479e-17	-0.157802	-0.0183006	1.28852	0.108307
2.77741	-5.91919	379.077	-29.9317	-0.113179	-1.24563e-17	0.136074	0.0736486	-4.71661	0.37242	-4.6644	333.251	28.0036	-0.0978047	-1.08251e-17	-0.157644	-0.0166834	1.19196	0.100162
2.7874	-5.90699	379.281	-29.8836	-0.113049	-1.24432e-17	0.13611	0.0727599	-4.67183	0.368094	-4.59468	333.266	28.0092	-0.0975981	-1.08052e-17	-0.157488	-0.0149515	1.08447	0.0911442
2.79739	-5.88465	379.462	-29.8375	-0.112973	-1.24361e-17	0.136136	0.0716938	-4.62306	0.363516	-4.52895	333.257	28.0207	-0.0974214	-1.07886e-17	-0.157338	-0.013254	0.97528	0.082003
2.80738	-5.86326	379.603	-29.8113	-0.112945	-1.24341e-17	0.136143	0.0707803	-4.5825	0.359877	-4.47847	333.221	28.0169	-0.0972911	-1.07772e-17	-0.157194	-0.0116282	0.865194	0.0727448
2.81737	-5.84898	379.692	-29.8013	-0.112952	-1.24357e-17	0.136138	0.0701854	-4.55615	0.357603	-4.45676	333.162	28.0085	-0.0972059	-1.07705e-17	-0.157063	-0.0102799	0.768468	0.0646041
2.82736	-5.8432	379.73	-29.7917	-0.112978	-1.24389e-17	0.136134	0.0699469	-4.54562	0.356627	-4.46256	333.084	28.0062	-0.0971462	-1.0766e-17	-0.15695	-0.0092606	0.691208	0.0581178
2.83736	-5.8504	379.727	-29.7806	-0.112997	-1.24411e-17	0.13612	0.0699646	-4.54113	0.356144	-4.49221	333.015	28.0068	-0.0970911	-1.07614e-17	-0.156851	-0.00858415	0.636357	0.0535182
2.84735	-5.87797	379.68	-29.7637	-0.112991	-1.24406e-17	0.136081	0.0701682	-4.53242	0.355304	-4.54412	332.978	28.004	-0.0970303	-1.07556e-17	-0.156768	-0.00825124	0.604624	0.0508499
2.85734	-5.92988	379.591	-29.7409	-0.112935	-1.24349e-17	0.136014	0.0705273	-4.51469	0.353725	-4.61832	332.977	27.9896	-0.0969716	-1.07493e-17	-0.1567	-0.00826443	0.595858	0.050087
2.86733	-5.99482	379.465	-29.7157	-0.11282	-1.24226e-17	0.135929	0.0709292	-4.48973	0.351589	-4.71141	333.016	27.9596	-0.096932	-1.07444e-17	-0.156655	-0.00867613	0.613253	0.0514879
2.87732	-6.06238	379.323	-29.6863	-0.112627	-1.24018e-17	0.135842	0.0713235	-4.46272	0.349257	-4.82167	333.092	27.9119	-0.0969137	-1.07414e-17	-0.156628	-0.00942208	0.650899	0.0545431
2.88731	-6.12346	379.181	-29.6558	-0.11237	-1.23739e-17	0.135764	0.071689	-4.43918	0.347188	-4.94349	333.194	27.8511	-0.0969061	-1.07392e-17	-0.156614	-0.0104124	0.701801	0.0586621
2.8973	-6.17318	379.047	-29.6248	-0.112071	-1.23412e-17	0.135711	0.0720144	-4.42184	0.345594	-5.06644	333.308	27.7822	-0.096906	-1.07377e-17	-0.156613	-0.0114983	0.756446	0.063052
2.90729	-6.20851	378.924	-29.5806	-0.111766	-1.23076e-17	0.135702	0.0723401	-4.41514	0.344666	-5.17908	333.399	27.7112	-0.0968901	-1.07345e-17	-0.156616	-0.0126323	0.813195	0.0675906
2.91728	-6.22138	378.823	-29.5132	-0.111494	-1.22775e-17	0.135744	0.0725146	-4.41546	0.343998	-5.27146	333.456	27.6399	-0.0968688	-1.07307e-17	-0.156616	-0.0137106	0.867291	0.071889
2.92727	-6.21264	378.747	-29.4257	-0.111273	-1.22532e-17	0.135824	0.0724507	-4.41689	0.343158	-5.34247	333.49	27.5775	-0.0968327	-1.07253e-17	-0.156611	-0.014739	0.920044	0.0760816
2.93726	-6.18694	378.691	-29.3316	-0.111115	-1.2236e-17	0.135923	0.0721497	-4.41614	0.342054	-5.3867	333.499	27.5275	-0.096793	-1.07195e-17	-0.156597	-0.0156916	0.971491	0.0801883
2.94725	-6.14299	378.638	-29.249	-0.111022	-1.22259e-17	0.136017	0.0716284	-4.41499	0.341049	-5.39249	333.482	27.4893	-0.096745	-1.07126e-17	-0.156561	-0.0166239	1.02805	0.0847434
2.95724	-6.0909	378.582	-29.1896	-0.110983	-1.22218e-17	0.13608	0.0709595	-4.41051	0.340061	-5.35924	333.446	27.468	-0.0966912	-1.07051e-17	-0.156503	-0.0174238	1.08409	0.089303
2.96723	-6.04095	378.511	-29.1606	-0.110991	-1.22231e-17	0.136093	0.0702121	-4.39932	0.338924	-5.29271	333.405	27.4567	-0.096642	-1.06984e-17	-0.156433	-0.0179509	1.13079	0.0931231
2.97723	-5.99974	378.43	-29.1572	-0.111008	-1.22253e-17	0.136064	0.0694524	-4.38068	0.337521	-5.19723	333.363	27.4512	-0.0966092	-1.06938e-17	-0.156365	-0.0181871	1.16657	0.0960624
2.98722	-5.98007	378.356	-29.1664	-0.111018	-1.22271e-17	0.135992	0.0687584	-4.35031	0.335353	-5.07926	333.332	27.4355	-0.0966087	-1.06933e-17	-0.156295	-0.0180308	1.18329	0.0973927
2.99721	-5.9827	378.293	-29.1852	-0.111033	-1.22295e-17	0.135885	0.0681897	-4.31171	0.332648	-4.94215	333.308	27.3992	-0.0966406	-1.06968e-17	-0.156216	-0.0175653	1.18464	0.0973815
3.0072	-6.00664	378.239	-29.2119	-0.111046	-1.22317e-17	0.135762	0.0679135	-4.27653	0.330282	-4.80197	333.288	27.3457	-0.096686	-1.07022e-17	-0.156142	-0.0169182	1.17423	0.0963436
3.01719	-6.04795	378.195	-29.2298	-0.111054	-1.22329e-17	0.135656	0.0680439	-4.25497	0.328856	-4.67111	333.269	27.2818	-0.0967297	-1.07074e-17	-0.15609	-0.0163086	1.16357	0.0952514
3.02718	-6.09412	378.159	-29.2307	-0.111049	-1.22324e-17	0.135585	0.0685105	-4.25129	0.328613	-4.56047	333.242	27.2146	-0.0967552	-1.07105e-17	-0.156065	-0.0158388	1.15737	0.0945179
3.03717	-6.13042	378.13	-29.2009	-0.111026	-1.22296e-17	0.135567	0.0691743	-4.26673	0.329497	-4.48113	333.209	27.1609	-0.0967635	-1.07116e-17	-0.156058	-0.0155151	1.15368	0.0940399
3.04716	-6.14388	378.098	-29.1401	-0.110986	-1.22246e-17	0.135604	0.0698733	-4.30005	0.331406	-4.43586	333.193	27.1357	-0.0967332	-1.07083e-17	-0.156064	-0.0153184	1.15062	0.0937082
3.05715	-6.12203	378.072	-29.0472	-0.110928	-1.22176e-17	0.135692	0.070296	-4.34119	0.333534	-4.41606	333.208	27.1472	-0.0966534	-1.06997e-17	-0.156062	-0.0151358	1.14205	0.0930451
3.06714	-6.06351	378.052	-28.9356	-0.110854	-1.22088e-17	0.135814	0.0702683	-4.38115	0.335327	-4.41606	333.271	27.1912	-0.0965303	-1.06864e-17	-0.156047	-0.0149209	1.12605	0.0918732
3.07713	-5.98158	378.033	-28.8181	-0.11077	-1.21992e-17	0.135946	0.0698086	-4.41186	0.336324	-4.43464	333.381	27.2534	-0.0963857	-1.06709e-17	-0.156015	-0.0146826	1.10379	0.090233
3.08712	-5.89999	378.007	-28.711	-0.110695	-1.21908e-17	0.136064	0.0691499	-4.43037	0.336503	-4.47167	333.541	27.3131	-0.0962681	-1.06587e-17	-0.155968	-0.0143732	1.07209	0.087792
3.09711	-5.82966	377.981	-28.6236	-0.11063	-1.21836e-17	0.136167	0.0685091	-4.44196	0.336379	-4.52827	333.752	27.3532	-0.0961799	-1.06498e-17	-0.155922	-0.014069	1.03695	0.0849846
3.1071	-5.77905	377.952	-28.5534	-0.110581	-1.21782e-17	0.136253	0.068041	-4.4499	0.33618	-4.60112	334.026	27.3643	-0.0961192	-1.06441e-17	-0.155879	-0.0138012	1.00192	0.0820801
3.11709	-5.73696	377.915	-28.4966	-0.110565	-1.21765e-17	0.136326	0.0675889	-4.45233	0.335727	-4.68844	334.37	27.3509	-0.0960914	-1.0642e-17	-0.155849	-0.0135589	0.966992	0.0790981
3.12709	-5.68773	377.86	-28.4436	-0.110588	-1.21793e-17	0.136405	0.0670043	-4.45138	0.33508	-4.79248	334.772	27.3276	-0.0961032	-1.06443e-17	-0.155834	-0.0133659	0.933654	0.0762146
3.13708	-5.61478	377.777	-28.385	-0.110654	-1.21867e-17	0.136506	0.0661729	-4.45229	0.334531	-4.90074	335.218	27.3091	-0.0961452	-1.06498e-17	-0.155828	-0.0132579	0.906862	0.0738792
3.14707	-5.51415	377.65	-28.3167	-0.110758	-1.21985e-17	0.136624	0.0649676	-4.44946	0.333626	-4.99651	335.699	27.3026	-0.0961931	-1.06557e-17	-0.155829	-0.0132025	0.887032	0.0721429
3.15706	-5.39374	377.47	-28.2408	-0.110906	-1.22154e-17	0.136743	0.0634184	-4.43821	0.332049	-5.06606	336.2	27.3065	-0.0962398	-1.06613e-17	-0.155832	-0.013167	0.873803	0.0709712
3.16705	-5.25973	377.233	-28.161	-0.111077	-1.22351e-17	0.136857	0.0615534	-4.41466	0.329561	-5.10933	336.691	27.3101	-0.0962712	-1.0665e-17	-0.155839	-0.0131678	0.867722	0.0703836
3.17704	-5.12209	376.929	-28.0957	-0.111264	-1.22565e-17	0.136958	0.0595851	-4.3848	0.326836	-5.13297	337.158	27.3041	-0.0962881	-1.0667e-17	-0.155854	-0.0132057	0.867415	0.070246
3.18703	-4.99334	376.572	-28.0566	-0.111453	-1.2278e-17	0.137045	0.0578129	-4.35995	0.324839	-5.148	337.572	27.29	-0.0962956	-1.06678e-17	-0.155879	-0.0133129	0.872972	0.0705729
3.19702	-4.88009	376.175	-28.0471	-0.111636	-1.22985e-17	0.137115	0.0563547	-4.34403	0.323884	-5.1636	337.927	27.2781	-0.0962848	-1.06662e-17	-0.155921	-0.0135547	0.887077	0.0716066
3.20701	-4.7859	375.756	-28.0587	-0.111819	-1.23187e-17	0.137175	0.0552487	-4.33775	0.323911	-5.17123	338.205	27.2812	-0.0962468	-1.06615e-17	-0.155974	-0.0138746	0.907413	0.0731962
3.217	-4.70913	375.343	-28.0781	-0.112005	-1.23392e-17	0.137228	0.0543956	-4.33563	0.324332	-5.16156	338.405	27.2976	-0.0961864	-1.06545e-17	-0.156023	-0.0140572	0.92163	0.0743436
3.22699	-4.64671	374.965	-28.093	-0.112204	-1.2361e-17	0.137281	0.0537206	-4.33497	0.324784	-5.13801	338.525	27.3311	-0.0960922	-1.06438e-17	-0.156069	-0.0140978	0.928853	0.0749917
3.23698	-4.59159	374.655	-28.0969	-0.112412	-1.23839e-17	0.137341	0.0531507	-4.33688	0.32524	-5.10167	338.555	27.39	-0.0959577	-1.06288e-17	-0.156106	-0.0140195	0.930352	0.0752681
3.24697	-4.53807	374.432	-28.0829	-0.112622	-1.24073e-17	0.137402	0.052504	-4.33206	0.32491	-5.05021	338.504	27.4625	-0.095788	-1.061e-17	-0.156128	-0.0138164	0.926083	0.0751323
3.25696	-4.4822	374.306	-28.0534	-0.112828	-1.24305e-17	0.137458	0.0516842	-4.31612	0.323483	-4.993	338.383	27.5401	-0.0956141	-1.05908e-17	-0.156144	-0.0135438	0.917883	0.0747043
3.26696	-4.4236	374.275	-28.0304	-0.113026	-1.2453e-17	0.137504	0.0507472	-4.29366	0.321563	-4.94498	338.201	27.614	-0.0954619	-1.0574e-17	-0.156161	-0.0133341	0.911959	0.074461
3.27695	-4.35216	374.338	-28.0204	-0.113202	-1.24732e-17	0.137544	0.0496107	-4.26711	0.319407	-4.91229	337.98	27.6864	-0.0953441	-1.05607e-17	-0.15618	-0.0133193	0.916411	0.0750698
3.28694	-4.27097	374.472	-28.0283	-0.113353	-1.24906e-17	0.137587	0.0483545	-4.23964	0.317326	-4.8936	337.72	27.7575	-0.095274	-1.05524e-17	-0.156199	-0.0134906	0.931025	0.0765216
3.29693	-4.18904	374.659	-28.0629	-0.113467	-1.25039e-17	0.13762	0.0470717	-4.20999	0.315339	-4.8794	337.432	27.8104	-0.0952643	-1.05507e-17	-0.156217	-0.0137578	0.951414	0.0784135
3.30692	-4.11751	374.882	-28.1186	-0.113561	-1.25149e-17	0.137643	0.0459005	-4.17905	0.313456	-4.86541	337.12	27.8463	-0.0953151	-1.05556e-17	-0.156241	-0.0140878	0.976129	0.0806287
3.31691	-4.06367	375.115	-28.1895	-0.113639	-1.25243e-17	0.137656	0.044922	-4.14672	0.311622	-4.84748	336.798	27.8632	-0.0954349	-1.05682e-17	-0.156275	-0.0143363	0.996074	0.082405
3.3269	-4.0317	375.34	-28.2748	-0.113701	-1.25317e-17	0.13765	0.0442183	-4.1166	0.310108	-4.82166	336.462	27.8586	-0.0956218	-1.05887e-17	-0.156315	-0.0143948	1.00449	0.0831703
